<svg xmlns="http://www.w3.org/2000/svg" viewBox="0 0 287 72.95"><title>Axis Bank logo</title><polygon points="84.03 72.95 57.88 72.95 42.02 45.23 68.16 45.23 84.03 72.95" style="fill:#96144c"/><polygon points="41.93 0 55.04 22.57 26.08 72.95 0 72.95 41.93 0" style="fill:#96144c"/><path d="M470.57,514.75H457.85l-3.3,6h-4.83l14.71-26.41,14.19,26.41H473.7Zm-1.82-3.53-4.42-8.45-4.62,8.45Z" transform="translate(-368.5 -475.52)" style="fill:#96144c"/><polygon points="120.05 32.27 111.86 20.42 116.97 20.42 122.66 28.8 128.6 20.42 133.75 20.42 125.2 32.27 134.18 45.23 129.15 45.23 122.58 35.72 115.78 45.23 110.72 45.23 120.05 32.27" style="fill:#96144c"/><rect x="138.21" y="20.42" width="4.48" height="24.8" style="fill:#96144c"/><path d="M533.57,499.6l-3.66,1.8a5.55,5.55,0,0,0-1.94-1.93,5.93,5.93,0,0,0-5.58.38,2.55,2.55,0,0,0-1.22,2.17c0,1.22,1.07,2.19,3.23,2.92l3,1a13.06,13.06,0,0,1,5.31,3,6,6,0,0,1,1.67,4.34,7,7,0,0,1-2.75,5.65,10.37,10.37,0,0,1-6.84,2.26,10.08,10.08,0,0,1-6.39-1.94,8.45,8.45,0,0,1-3.1-5.38l4.54-.83a5.83,5.83,0,0,0,1.08,3,5.81,5.81,0,0,0,7.54.43,3.7,3.7,0,0,0,1.38-3,3.07,3.07,0,0,0-.26-1.33,2.88,2.88,0,0,0-.72-1.1,6.11,6.11,0,0,0-1.32-1,18.31,18.31,0,0,0-1.93-.86l-2.86-1c-4.1-1.44-6.12-3.53-6.12-6.31a5.57,5.57,0,0,1,2.57-4.66,10.25,10.25,0,0,1,6.35-1.91,9.26,9.26,0,0,1,8.05,4.18" transform="translate(-368.5 -475.52)" style="fill:#96144c"/><path d="M551.91,520.75v-24.8h4.49a23.81,23.81,0,0,1,4.75.36,8.14,8.14,0,0,1,3,1.29,7.24,7.24,0,0,1,2,2.41,5.92,5.92,0,0,1,.77,2.88,5.51,5.51,0,0,1-2.46,4.5,7,7,0,0,1,3.72,2.37,5.78,5.78,0,0,1,1.4,3.9,6.16,6.16,0,0,1-2.47,4.93,8.34,8.34,0,0,1-3.32,1.71,22.53,22.53,0,0,1-5.07.46Zm4.49-14.16h1.42a5.93,5.93,0,0,0,3.66-.91,3.31,3.31,0,0,0,1.16-2.72,3.09,3.09,0,0,0-1.18-2.66,5.57,5.57,0,0,0-3.48-.93H556.4Zm0,10.64h2.77a8.07,8.07,0,0,0,4.49-1,3.29,3.29,0,0,0,1.49-2.73,3.41,3.41,0,0,0-1.45-2.73c-.94-.68-2.61-1.05-5-1.05H556.4Z" transform="translate(-368.5 -475.52)" style="fill:#96144c"/><path d="M590.69,514.75H578l-3.31,6H569.8l14.7-26.41,14.21,26.41h-4.93Zm-1.83-3.53-4.42-8.45-4.64,8.45Z" transform="translate(-368.5 -475.52)" style="fill:#96144c"/><polygon points="233.15 45.23 233.15 18.69 254.83 37.67 254.83 20.42 259.3 20.42 259.3 46.74 237.63 27.83 237.63 45.23 233.15 45.23" style="fill:#96144c"/><polygon points="269.35 30.33 280.93 20.42 286.9 20.42 273.48 31.66 287 45.23 281 45.23 270.29 34.2 269.35 34.97 269.35 45.23 264.86 45.23 264.86 20.42 269.35 20.42 269.35 30.33" style="fill:#96144c"/></svg>