<svg xmlns="http://www.w3.org/2000/svg" viewBox="0 0 347.36 58.18"><title>HDFC Bank logo</title><rect x="0.01" y="0.03" width="57.91" height="58.15" style="fill:#fff"/><rect x="57.89" width="289.47" height="58.12" style="fill:#014d8e"/><polygon points="76.3 42.8 76.3 15.31 85.31 15.31 85.31 24.59 93.75 24.59 93.75 15.31 102.78 15.31 102.78 42.8 93.75 42.8 93.75 32.14 85.31 32.14 85.31 42.8 76.3 42.8" style="fill:#fff"/><path d="M455.36,505.05h2.33a9.72,9.72,0,0,1,3.72.53,3.51,3.51,0,0,1,1.45,1.19,6.75,6.75,0,0,1,.91,2.17,12.25,12.25,0,0,1,.32,2.8,10.2,10.2,0,0,1-.69,4,4.64,4.64,0,0,1-2,2.36,7.84,7.84,0,0,1-3.78.72h-2.28Zm3.49,20.66a21.17,21.17,0,0,0,5.32-.55,12.14,12.14,0,0,0,3.54-1.47,10.58,10.58,0,0,0,2.5-2.44,14.25,14.25,0,0,0,1.94-4,17.49,17.49,0,0,0,.78-5.5A15.89,15.89,0,0,0,471.2,504a10.17,10.17,0,0,0-4.84-4.49,18,18,0,0,0-7.29-1.33H446.56v27.5Z" transform="translate(-338.32 -482.91)" style="fill:#fff"/><polygon points="138.75 42.8 138.75 15.31 160.11 15.31 160.11 22.09 147.64 22.09 147.64 26.49 157.61 26.49 157.61 33.1 147.64 33.1 147.64 42.8 138.75 42.8" style="fill:#fff"/><path d="M528.61,508.73h-8.5a5.07,5.07,0,0,0-1.48-3.22,4.46,4.46,0,0,0-3.15-1.14,4.77,4.77,0,0,0-3.88,1.85c-1,1.24-1.51,3.24-1.51,6a11.69,11.69,0,0,0,.64,4.36,4.8,4.8,0,0,0,1.78,2.24,5.27,5.27,0,0,0,2.88.71,4.45,4.45,0,0,0,3.29-1.15,5.09,5.09,0,0,0,1.48-3.38h8.66a15.74,15.74,0,0,1-1,4.3,11.08,11.08,0,0,1-2.47,3.48,11.61,11.61,0,0,1-4.13,2.71,14.8,14.8,0,0,1-5.54.94,17.59,17.59,0,0,1-5.78-.91,12.26,12.26,0,0,1-7.3-6.57,15.78,15.78,0,0,1-1.43-6.88,16.67,16.67,0,0,1,1-6,13.41,13.41,0,0,1,2.85-4.65,12.57,12.57,0,0,1,4-2.81,15.78,15.78,0,0,1,6.23-1.19,17.22,17.22,0,0,1,5.59.88,10.51,10.51,0,0,1,4.29,2.61,11.76,11.76,0,0,1,2.59,3.95,13,13,0,0,1,.86,3.81" transform="translate(-338.32 -482.91)" style="fill:#fff"/><path d="M557.47,504.41a11.09,11.09,0,0,1,2.51.17,2.52,2.52,0,0,1,1.27.85,2.24,2.24,0,0,1,.49,1.44,2.12,2.12,0,0,1-.81,1.71,4.77,4.77,0,0,1-2.92.67h-3.39v-4.84Zm2.27,21.3a23,23,0,0,0,4.51-.29,14,14,0,0,0,2.68-.95,7.66,7.66,0,0,0,2-1.39,6.42,6.42,0,0,0,1.59-2.38,8.75,8.75,0,0,0,.56-3.2,6.71,6.71,0,0,0-1.24-4.14,6.08,6.08,0,0,0-3.34-2.26c2.38-1.5,3.57-3.45,3.57-5.82A6.19,6.19,0,0,0,567,499.7q-2.4-1.49-7.48-1.49H545.89v27.5Zm-1.45-11.51c1.78,0,2.94.21,3.51.67a2.28,2.28,0,0,1,.85,1.89,2.33,2.33,0,0,1-.89,1.94c-.55.49-1.73.7-3.46.7h-3.68v-5.2Z" transform="translate(-338.32 -482.91)" style="fill:#fff"/><path d="M590.89,516.47h-5.73l2.83-10Zm-8.41,9.25,1-3.61h9l1,3.61h9l-9.82-27.5h-9.16l-9.83,27.5Z" transform="translate(-338.32 -482.91)" style="fill:#fff"/><polygon points="267.95 42.8 267.95 15.31 276.34 15.31 285.81 30.03 285.81 15.31 294.45 15.31 294.45 42.8 285.87 42.8 276.6 28.45 276.6 42.8 267.95 42.8" style="fill:#fff"/><polygon points="300.44 42.8 300.44 15.31 309.18 15.31 309.18 24.38 317.33 15.31 327.91 15.31 317.87 25.66 328.95 42.8 318.16 42.8 311.57 31.86 309.18 34.23 309.18 42.8 300.44 42.8" style="fill:#fff"/><polygon points="47.76 47.95 31.84 47.95 31.84 58.13 57.89 58.13 57.89 31.97 47.76 31.97 47.76 47.95" style="fill:#e52729"/><polygon points="10.12 10.16 26.05 10.16 26.05 0 0 0 0 26.15 10.12 26.15 10.12 10.16" style="fill:#e52729"/><polygon points="10.12 47.95 10.12 31.97 0 31.97 0 58.13 26.05 58.13 26.05 47.95 10.12 47.95" style="fill:#e52729"/><polygon points="31.84 0 31.84 10.16 47.76 10.16 47.76 26.15 57.89 26.15 57.89 0 31.84 0" style="fill:#e52729"/><rect x="20.25" y="20.34" width="17.37" height="17.44" style="fill:#014d8e"/></svg>