<svg xmlns="http://www.w3.org/2000/svg" viewBox="0 0 275.8 52.71"><title>ICICI Bank logo</title><path d="M387.86,497.1c12.08-12,26.67-15.06,32.5-6.88s.73,24.61-11.35,36.57-26.67,15.06-32.49,6.88-.72-24.61,11.35-36.57" transform="translate(-374.1 -485.64)" style="fill:#f48120"/><path d="M395.85,490.72a37,37,0,0,0-4,3.42c-10.58,10.42-15,24.74-9.77,31.9,5.37,7.16,18.39,4.56,29.14-6,5.78-5.62,9.69-12.21,11.31-18.31.49-4.47-.16-8.47-2.2-11.48-4.64-6.35-14.57-5.86-24.5.49" transform="translate(-374.1 -485.64)" style="fill:#af2a30"/><path d="M401.84,532.69c-5.66,4.24-11.49,6.35-17.19,5.47,2.39.12,4.33-2.53,5.9-6.09a59.51,59.51,0,0,0,3.34-10.2c1.12-5,1.21-8.6.64-9.37-1-1.28-3.17-.95-5.65.48-1.19.66-2.77.22-.9-2s9.42-7.78,12.12-8.64c3-.85,6.35.31,5.21,3.56-.82,2.37-11.22,29.68-3.48,26.84m8.51-42.35c1.41,1.41.55,4.49-1.85,6.91s-5.57,3.26-6.93,1.87-.59-4.51,1.83-7,5.59-3.19,7-1.83" transform="translate(-374.1 -485.64)" style="fill:#fff"/><path d="M422.43,537.86,429.5,512h9.15l-7.06,25.82Zm38.34-17.49a3.28,3.28,0,0,0-.87-2.82,4.63,4.63,0,0,0-3.2-.94,8.78,8.78,0,0,0-5.94,2.13,11.87,11.87,0,0,0-3.53,6q-1,3.78.26,5.81t4.73,2a7.86,7.86,0,0,0,4.34-1.17,7.41,7.41,0,0,0,2.79-3.42h9.47a13.53,13.53,0,0,1-6.45,7.49q-4.55,2.41-12.28,2.42-7.46,0-10.7-3.38t-1.58-9.44a17.5,17.5,0,0,1,7.1-10.23q5.28-3.59,13.25-3.6,6.91,0,9.94,2.28c2,1.52,2.73,3.79,2.11,6.79Zm7.86,17.49L475.69,512h9.14l-7.06,25.82ZM507,520.37a3.29,3.29,0,0,0-.87-2.82,4.63,4.63,0,0,0-3.2-.94,8.79,8.79,0,0,0-5.94,2.13,11.87,11.87,0,0,0-3.53,6q-1,3.78.26,5.81t4.73,2a7.83,7.83,0,0,0,4.33-1.17,7.38,7.38,0,0,0,2.79-3.42H515a13.5,13.5,0,0,1-6.45,7.49q-4.55,2.41-12.28,2.42-7.46,0-10.7-3.38T484,525.12a17.46,17.46,0,0,1,7.09-10.23q5.28-3.59,13.25-3.6,6.91,0,9.95,2.28t2.1,6.79Zm7.86,17.49L521.89,512H531L524,537.86Zm35.77-20.58-1.48,5.39h4.72a5,5,0,0,0,2.76-.68,3.35,3.35,0,0,0,1.4-2,2,2,0,0,0-.31-2,3.31,3.31,0,0,0-2.39-.68ZM547.94,527l-1.55,5.67h5.42a5.94,5.94,0,0,0,3.11-.72,3.45,3.45,0,0,0,1.57-2.12,2,2,0,0,0-.4-2.11,4.08,4.08,0,0,0-2.74-.72Zm-11.67,10.9L543.34,512h16.58a26.09,26.09,0,0,1,4.25.24,6.24,6.24,0,0,1,2.19.78,3.43,3.43,0,0,1,1.56,2.07,5.88,5.88,0,0,1-.12,3.13,6.86,6.86,0,0,1-2.29,3.59,12.32,12.32,0,0,1-4.73,2.22q3.19.77,4.27,2.41a5.26,5.26,0,0,1,.32,4.41,8.92,8.92,0,0,1-3.54,5.21,11.72,11.72,0,0,1-6.73,1.77Zm46.44-7.8a21.87,21.87,0,0,0-5.83.52,2.73,2.73,0,0,0-2,1.84,1.25,1.25,0,0,0,.36,1.39,3.06,3.06,0,0,0,1.94.5,6,6,0,0,0,3.56-1,5.22,5.22,0,0,0,1.91-3Zm-1.22,5.14a10.6,10.6,0,0,1-3.82,2.31,15.1,15.1,0,0,1-5,.75c-2.65,0-4.56-.45-5.74-1.36a3.35,3.35,0,0,1-1.08-3.87q.93-3.41,5-4.92t12.8-1.58a1.8,1.8,0,0,1,.07-.2c0-.1.06-.17.08-.22a2,2,0,0,0-.29-2.07,3.33,3.33,0,0,0-2.4-.68,5.63,5.63,0,0,0-2.53.5,3,3,0,0,0-1.4,1.5H569.3a6.94,6.94,0,0,1,4.16-4.45,23.26,23.26,0,0,1,9.2-1.46q5.67,0,8,1.71t1.35,5.19l-2.51,9.16a9.48,9.48,0,0,0-.3,1.39,3.53,3.53,0,0,0,0,1h-8a6.25,6.25,0,0,1,0-1.3,8.34,8.34,0,0,1,.26-1.36m10.57,2.66,4.1-15a14.45,14.45,0,0,0,.37-1.68,9.38,9.38,0,0,0,.13-1.33h8.6a4,4,0,0,1-.07,1.11c-.08.46-.21,1.06-.41,1.79a15.56,15.56,0,0,1,4.17-2.52,11.81,11.81,0,0,1,4.36-.83q4.19,0,5.79,2.08t.51,6.09l-2.81,10.26h-8.58l2.73-10a4,4,0,0,0,0-3,2.52,2.52,0,0,0-2.34-.95,4.94,4.94,0,0,0-3.47,1.26,7.87,7.87,0,0,0-2.07,3.8l-2.43,8.89Zm36.24,0h-8.47L626.9,512h8.47l-4.14,15.14,8.53-7.32H649.9l-9.5,8,6.52,10H636.21l-5.43-9.07Z" transform="translate(-374.1 -485.64)" style="fill:#004a80"/></svg>