<svg xmlns="http://www.w3.org/2000/svg" viewBox="0 0 259 88.73"><title>State Bank of India logo</title><path d="M535.56,512.66c-4.73-3.92-10.85-6.45-16.25-8.68-7.45-3.08-13.88-5.74-13.88-10.67a7,7,0,0,1,2.84-5.55,12.34,12.34,0,0,1,7.59-2.34c9.31,0,16.74,6.58,16.81,6.65l1.81,1.65,8.25-15.48-.94-1c-.36-.38-9.06-9.35-25.82-9.35a31.67,31.67,0,0,0-20.83,7.24,24,24,0,0,0-8.5,18.41c0,7,2.7,12.58,8.24,17.19,4.66,3.87,10.46,6.37,16.08,8.8,7.67,3.3,14.28,6.15,14.28,11.24,0,3.87-2.61,8-10,8-10.53,0-19-8-19.07-8.1l-1.58-1.54-10.26,14.22,1,1.15a34.58,34.58,0,0,0,7.75,6A43.31,43.31,0,0,0,515,556.3c8.6,0,15.92-2.64,21.19-7.63a24.8,24.8,0,0,0,7.68-18.25,21.84,21.84,0,0,0-8.35-17.75" transform="translate(-382.5 -467.64)" style="fill:#292075"/><rect x="239.78" y="1.54" width="19.22" height="85.84" style="fill:#292075"/><path d="M584.7,538.95H570.07V485.25H583c5.79,0,9.1,3.23,9.1,8.87s-3,8.58-8.87,8.58h-4.45V518.5h5.95a10.58,10.58,0,0,1,7.83,2.94,9,9,0,0,1,2.77,6.91c0,6.54-4.06,10.6-10.6,10.6m25.52-22.5a19.52,19.52,0,0,0-7.61-7,21.61,21.61,0,0,0,7.84-17.22c0-7.11-2.71-13-7.84-17.17-4.83-3.88-11.54-5.93-19.4-5.93H551.92V555h31.63c8.39,0,15.64-2.12,21-6.14,6.06-4.55,9.26-11.34,9.26-19.61a23.78,23.78,0,0,0-3.57-12.82" transform="translate(-382.5 -467.64)" style="fill:#292075"/><path d="M426.88,467.64a44.49,44.49,0,0,0-4.54,88.73V524.06a12.77,12.77,0,1,1,9.08,0v32.31a44.49,44.49,0,0,0-4.54-88.73" transform="translate(-382.5 -467.64)" style="fill:#00b4ef"/></svg>